<?xml version="1.0" standalone="no"?>
<!DOCTYPE svg PUBLIC "-//W3C//DTD SVG 20010904//EN"
 "http://www.w3.org/TR/2001/REC-SVG-20010904/DTD/svg10.dtd">
<svg version="1.0" xmlns="http://www.w3.org/2000/svg"
 width="172.000000pt" height="187.000000pt" viewBox="0 0 172.000000 187.000000"
 preserveAspectRatio="xMidYMid meet">

<g transform="translate(0.000000,187.000000) scale(0.100000,-0.100000)"
fill="#000000" stroke="none">
<path d="M180 1422 l0 -327 86 -54 86 -54 -86 -55 -86 -55 0 -204 c0 -154 3
-205 13 -207 257 -76 439 -168 573 -289 29 -26 54 -47 55 -47 2 0 2 297 -1
660 l-5 660 -54 40 c-70 53 -174 113 -266 155 -84 39 -273 105 -298 105 -16 0
-17 -29 -17 -328z m325 0 l110 -58 3 -162 c1 -89 0 -162 -3 -162 -5 0 -103 61
-217 134 -16 9 -18 29 -18 158 0 82 3 148 8 148 4 0 57 -26 117 -58z m115
-762 c0 -83 -3 -150 -6 -150 -3 0 -47 20 -97 44 -51 24 -102 46 -114 50 -22 7
-23 13 -23 96 l0 88 77 40 77 40 43 -29 43 -30 0 -149z"/>
<path d="M1410 1714 c-136 -44 -346 -149 -435 -216 l-70 -53 -3 -658 -2 -658
69 58 c129 108 322 209 493 256 l78 22 0 205 0 205 -80 50 c-44 28 -80 53 -80
56 0 4 36 30 80 58 l80 51 0 330 c0 258 -3 330 -12 330 -7 -1 -60 -17 -118
-36z m-62 -390 l-3 -139 -115 -72 c-63 -40 -118 -73 -122 -73 -5 0 -8 69 -8
154 0 129 3 156 16 167 33 27 219 117 227 110 5 -5 7 -71 5 -147z m-70 -503
l72 -42 0 -80 0 -79 -117 -57 c-65 -32 -121 -59 -125 -61 -5 -2 -8 66 -8 152
l0 156 47 29 c26 16 50 28 53 27 3 -2 38 -22 78 -45z"/>
</g>
</svg>
